PathFileType	4	(X/Y/Z)	Patient4_TMGait_0pt3_02_right_16.trc.trc
DataRate	CameraRate	NumFrames	NumMarkers	Units	OrigDataRate	OrigDataStartFrame	OrigNumFrames
51.851851851852	51.851851851852	5	33	mm	51.851851851852	124	       141
Frame#	Time	Sacral			L.Shoulder			Chest			R.Shoulder			Neck			R.ASIS			L.ASIS			R.Thigh.Superior			R.Thigh.Lateral			R.Thigh.Inferior			R.Patella			L.Thigh.Superior			L.Thigh.Lateral			L.Thigh.Inferior			L.Patella			L.Shank.Superior			L.Shank.Lateral			L.Shank.Inferior			R.Shank.Superior			R.Shank.Lateral			R.Shank.Inferior			R.Heel			R.Midfoot.Superior			R.Midfoot.Lateral			R.Toe			L.Heel			L.Midfoot.Lateral			L.Midfoot.Superior			L.Toe			L.Elbow			L.Wrist			R.Elbow			R.Wrist			
		X1	Y1	Z1	X2	Y2	Z2	X3	Y3	Z3	X4	Y4	Z4	X5	Y5	Z5	X6	Y6	Z6	X7	Y7	Z7	X8	Y8	Z8	X9	Y9	Z9	X10	Y10	Z10	X11	Y11	Z11	X12	Y12	Z12	X13	Y13	Z13	X14	Y14	Z14	X15	Y15	Z15	X16	Y16	Z16	X17	Y17	Z17	X18	Y18	Z18	X19	Y19	Z19	X20	Y20	Z20	X21	Y21	Z21	X22	Y22	Z22	X23	Y23	Z23	X24	Y24	Z24	X25	Y25	Z25	X26	Y26	Z26	X27	Y27	Z27	X28	Y28	Z28	X29	Y29	Z29	X30	Y30	Z30	X31	Y31	Z31	X32	Y32	Z32	X33	Y33	Z33	

124	32.412142857143	692.308609350981	1000.657652512213	411.714231447250	933.939719013176	1433.868266908295	298.672050074090	980.532075295030	1353.883195643864	478.900043970261	850.306721214647	1426.422530804450	621.986287242364	869.946850499922	1487.686402516492	447.565999458101	890.437843987453	934.100377176625	576.815729318402	934.952714069949	954.391927906879	305.724664178354	964.799031915416	754.612777774635	554.251293355931	902.701523816637	634.654136959946	615.367265067115	996.250119958515	594.826583238717	543.617805670156	1020.112348943354	513.257303951112	558.318276406749	944.552751434634	726.780513344169	342.239281503659	846.844351541634	619.533984458823	272.402679036221	904.841419111192	535.000769746868	350.194682862316	892.039472020774	465.448853581823	361.006355286045	853.686014390362	398.049626117561	351.324879548674	752.443458250740	296.811640040614	294.155243908520	773.116715346489	183.108427402423	374.077814177518	1003.879663037254	423.001447465219	569.498711200466	946.386669628518	311.712263221110	633.899675066827	1014.326781352811	223.215306629270	584.395584015939	916.383746358778	40.179290651130	560.448014915381	1078.861804977815	112.109878008450	595.941230095346	1002.212083958985	37.414375405610	631.270559574831	1204.336939635221	76.375982512647	619.434124177064	622.487581744964	38.937676378747	408.919328770854	700.681550783320	35.425847110370	332.855100235803	784.036186984057	94.702125439618	364.902308824328	912.739836908312	39.556187241916	342.329163205651	1108.813649062246	1186.443517520272	123.974638710379	1362.571258979075	1201.605322538909	178.355577244984	667.773825918152	1123.949448395967	678.007058346641	629.259985560631	865.316720896413	690.070321298999	
125	32.431428571429	693.766281412578	999.570317121370	415.493594987401	933.573304861897	1433.223550584256	302.784278400621	980.525606289286	1353.607187427812	483.081991669378	850.045992943551	1425.772105941433	626.153099578691	869.421937092026	1486.962536246786	451.668926188854	891.797373076071	932.974610224856	580.612385548383	936.599320736119	953.886238519012	309.715047548943	965.731041927005	752.730384161154	558.134644984766	901.754763463017	632.697347118182	617.585853653814	996.056874269632	593.195211309084	546.689855955857	1018.330856328686	511.318014118300	560.572472686166	944.823757942419	725.616716027445	345.182095957440	845.845254437061	619.363665001481	274.856984409939	903.066386338270	533.971297837660	352.079709611540	889.665771717376	464.289703857766	362.557547972607	850.649511705901	397.323548770823	352.684829392471	748.209993862665	297.260360557880	295.136134631496	768.193583453745	182.935787779330	374.470926201800	1002.304068773011	420.736808132282	571.447756538634	944.148126765082	309.456264983822	634.809088784503	1011.862635901188	221.085270964965	585.098539199693	912.559610661161	40.173625256643	559.978908000325	1075.849227470008	110.006625586362	596.349478154521	997.782466631639	36.901621134849	631.586673279639	1200.403615747584	72.396461737178	620.619798837889	616.640368995818	39.145819773839	408.801127052111	694.926128247493	35.451117624171	332.845037284201	778.364598560734	94.746417721300	364.868824699663	907.026583249072	39.424384625619	342.285638422860	1109.157988457199	1186.263846449531	128.195823158773	1362.736703575044	1205.647236711341	182.101242620000	669.950656212832	1121.717954559187	682.065285304733	632.523584398513	862.890419388481	694.374316758992	
126	32.450714285714	695.310610294376	998.791873177260	419.591921786833	933.262348481329	1432.820615031828	307.064751574410	980.729546632959	1353.547521377602	487.388415765980	850.122851686318	1425.317573932036	630.567767441149	869.084687639404	1486.474745365327	456.010382822221	893.495577297775	932.151067446318	584.621145826748	938.258548387910	953.620182345982	313.860340595944	967.201173472333	751.369573111979	561.805066271301	901.713049473768	631.256657694315	619.802938735908	996.552361930287	592.053499468334	549.522983183587	1017.312925590316	509.598880709954	562.729202212253	945.189826533331	724.647299930148	348.185369006270	844.910504067179	619.360183682399	277.521263739919	901.536159381904	533.108833362746	354.093299947442	887.630724218903	463.222283692397	364.175919921046	847.818810437489	396.746266262780	354.133540433443	744.045033706674	297.990960890642	296.261946221305	763.390422901480	182.952731226859	374.885916047974	1001.114190757524	418.690245542122	573.257502711141	941.899703970473	307.633988817987	635.673933073038	1008.894976734558	219.095661345224	585.586598792100	907.391039990126	40.409136078332	559.365220651951	1071.738879530931	107.941826604057	596.476054531011	992.081401525223	36.555522542256	631.758621633968	1195.342031992422	68.264485822909	621.443143101141	610.807108973670	39.631490655252	408.662415506818	689.202279586624	35.606268707076	332.840225445514	772.806208728582	94.867585343521	364.797648597691	901.354023101441	39.256643106751	342.220215320113	1109.042247382668	1185.902640373358	132.397515442082	1362.494953584761	1208.727955540479	185.590592645399	672.647148043289	1119.527761209737	686.727205205966	636.808199743689	860.475100679272	699.524136782859	
127	32.470000000000	696.902870515303	998.363386974378	423.980283502715	933.003806583390	1432.710375266065	311.492437118278	981.119995833924	1353.740179557800	491.793999397157	850.515854434596	1425.108549345371	635.199363819162	868.932437105737	1486.271620062111	460.564653327351	895.490948949966	931.690520127805	588.817900497063	939.873166760987	953.634653523745	318.123786222564	969.095340585307	750.531578312074	565.274507148012	902.453729050979	630.357509335544	622.106378688648	997.549185061947	591.362712299448	552.157964326888	1016.899863631675	508.158745781768	564.814651558003	945.620866422480	723.934964411415	351.240857685831	844.078276208450	619.546260875490	280.367400032794	900.330533763310	532.452367919867	356.208740903930	886.026251650491	462.267785441778	365.814264130710	845.274221111024	396.347678835199	355.635843096863	740.018649665730	299.056309806516	297.525665284116	758.761047712753	183.210357869455	375.300480584111	1000.245359819190	416.940233694221	574.962327216849	939.766376467665	306.252973731040	636.607980648571	1005.638732148489	217.333637362325	585.940674701126	901.397021460627	40.745966331885	558.756956118712	1066.899855656782	106.062177790752	596.391609654378	985.672549230001	36.338849925012	631.857727816935	1189.619042050925	64.390535166038	621.899473832563	605.016051917108	40.527243417685	408.509998937751	683.521897361524	35.966999549113	332.840355988644	767.403109567605	95.088575821057	364.677715263767	895.715986661178	39.050104210069	342.133710676629	1108.477581812052	1185.428028349720	136.576916509468	1361.883613142796	1210.902830232508	188.827962383043	675.779192907784	1117.503180620828	691.965121521438	642.010656572067	858.204731068450	705.487476181928	
128	32.489285714286	698.510466404659	998.286695974844	428.647485500100	932.760190693569	1432.919835368784	316.038226456913	981.658258406688	1354.203151323705	496.261414640115	851.197565798373	1425.166340776844	640.014114094542	868.939908664358	1486.375423181402	465.302106561054	897.747683456627	931.620257286470	593.170296887038	941.388775649677	953.947934373857	322.466301354240	971.274152218049	750.154260044083	568.587824403533	903.781234648304	629.958882378258	624.569828416490	998.823422366740	591.033251656324	554.656030148510	1016.872638869194	507.005154775189	566.854913222012	946.127799774630	723.531816833441	354.344997307350	843.446324644450	619.922067875217	283.369659917820	899.596217681825	532.027075035670	358.403620810810	885.011938378627	461.431709998439	367.429987626103	843.156767092977	396.137801869637	357.161633399808	736.256737553765	300.504850777664	298.920205283704	754.386782920856	183.755998690305	375.689958898588	999.565493856597	415.514245231198	576.597020261848	937.766247883058	305.281287775760	637.679886019347	1002.214954019311	215.849162461358	586.233429172858	894.984810584984	41.084555668529	558.255347170306	1061.605941690095	104.464739794148	596.169831386578	978.976713096107	36.220409394725	631.935247425422	1183.575409857153	61.068335855804	622.039069011477	599.311900958036	41.989258825105	408.352649870329	677.903237184813	36.627178019491	332.845171822216	762.205184261576	95.433864709274	364.497831582591	890.099396953104	38.804736148515	342.029278339920	1107.443273327627	1184.875517967447	140.747864345146	1360.900089869412	1212.194462634979	191.838163636066	679.310848195845	1115.710390499765	697.753528192244	648.074656897846	856.158730183189	712.216120293514	
